<svg viewBox="0 0 500 500" xmlns="http://www.w3.org/2000/svg"><path d="M22.277 0h455.446c5.974.108 11.857 2.63 15.752 6.525 3.895 3.895 6.417 9.778 6.525 15.752v455.446c-.108 5.974-2.63 11.857-6.525 15.752-3.895 3.895-9.778 6.417-15.752 6.525H22.277c-5.974-.108-11.857-2.63-15.752-6.525C2.63 489.58.108 483.697 0 477.723V22.277C.108 16.303 2.63 10.42 6.525 6.525 10.42 2.63 16.303.108 22.277 0ZM10.026 10.026c-3.273 3.271-5.183 7.288-5.076 12.251v455.446c-.107 4.962 1.803 8.98 5.076 12.251 3.271 3.273 7.289 5.184 12.251 5.076h455.446c4.962.108 8.98-1.803 12.251-5.076 3.273-3.271 5.183-7.289 5.076-12.251V22.277c.107-4.963-1.803-8.98-5.076-12.251-3.271-3.273-7.289-5.184-12.251-5.076H22.277c-4.962-.108-8.98 1.803-12.251 5.076Z"/><path d="M78.567 101.135q-7.735 0-14.004-2.783-6.27-2.783-10.371-7.324-4.102-4.541-6.914-10.635-2.813-6.094-4.014-12.451-1.201-6.358-1.201-13.037 0-6.211 1.201-12.129 1.201-5.918 4.014-11.573 2.812-5.654 6.914-9.902 4.101-4.248 10.429-6.855 6.329-2.608 14.063-2.608 9.023 0 16.465 4.658 7.441 4.659 11.015 12.745L91.047 34.28q-.879-3.047-5.185-5.713-4.307-2.666-7.178-2.666-4.922 0-8.906 2.636-3.985 2.637-6.328 6.914-2.344 4.278-3.575 9.288-1.23 5.009-1.23 10.166 0 5.8 1.23 11.367 1.231 5.566 3.575 10.312 2.343 4.746 6.269 7.676 3.926 2.93 8.848 2.93 4.16 0 7.353-1.407 3.194-1.406 5.039-3.544 1.846-2.139 3.018-5.069 1.172-2.929 1.582-5.537.41-2.607.41-5.303H78.215V52.268h34.043v8.555q0 5.918-1.025 11.425-1.026 5.508-3.545 10.84-2.52 5.332-6.27 9.287-3.75 3.955-9.638 6.358-5.889 2.402-13.213 2.402Zm62.742-39.727h24.199q-.41-5.273-3.633-8.994-3.222-3.72-8.496-3.72-5.215 0-8.466 3.779-3.252 3.779-3.604 8.935Zm12.598 26.368q5.8 0 9.023-3.868l13.359 5.743q-3.632 5.507-9.902 8.554-6.269 3.047-12.48 3.047-5.801 0-11.075-2.519-5.273-2.52-9.169-6.856-3.897-4.336-6.182-10.547-2.285-6.211-2.285-13.242 0-14.062 8.203-23.467 8.203-9.404 19.98-9.404 7.735 0 13.858 4.248t9.521 11.748q3.399 7.5 3.399 16.875v3.985H141.25q.059 3.808.996 6.767.938 2.959 2.286 4.6 1.347 1.64 3.105 2.666 1.758 1.025 3.252 1.347 1.494.323 3.018.323Zm52.269 11.777h-15.117v-62.93h15.117v9.493q2.637-4.805 7.764-7.969 5.127-3.164 11.162-3.164 3.223 0 6.416 1.67 3.193 1.67 5.918 4.746 2.725 3.076 4.394 8.056 1.67 4.981 1.67 10.957v39.141h-15.117V68.088q0-5.859-.732-9.785-.733-3.926-2.197-5.947-1.465-2.022-3.252-2.813-1.788-.791-4.366-.791-2.05 0-3.662.469-1.611.469-3.164 1.758-1.553 1.289-2.578 3.398-1.025 2.11-1.641 5.596-.615 3.486-.615 8.174Zm64.867-38.145h24.2q-.411-5.273-3.633-8.994-3.223-3.72-8.496-3.72-5.215 0-8.467 3.779-3.252 3.779-3.604 8.935Zm12.598 26.368q5.801 0 9.023-3.868l13.36 5.743q-3.633 5.507-9.903 8.554-6.269 3.047-12.48 3.047-5.801 0-11.074-2.519-5.274-2.52-9.17-6.856-3.897-4.336-6.182-10.547-2.285-6.211-2.285-13.242 0-14.062 8.203-23.467 8.203-9.404 19.981-9.404 7.734 0 13.857 4.248 6.123 4.248 9.522 11.748 3.398 7.5 3.398 16.875v3.985h-38.906q.058 3.808.996 6.767.937 2.959 2.285 4.6 1.348 1.64 3.105 2.666 1.758 1.025 3.252 1.347 1.495.323 3.018.323Zm73.305-35.508q-6.328-3.574-9.141-3.574-3.223 0-5.625 1.699t-3.662 4.541q-1.26 2.842-1.846 5.889-.586 3.046-.586 6.328v32.402h-15.117V36.682h15.117v9.434q2.461-4.688 6.739-7.911 4.277-3.222 7.851-3.222 2.93 0 6.182 1.552 3.252 1.553 5.771 3.956Zm16.779-24.287-1.274-1.392q-1.275-1.391-1.275-5.2t2.549-6.592q2.549-2.783 6.064-2.783 3.516 0 6.065 2.783 2.549 2.783 2.549 6.592 0 3.809-2.549 6.592-2.549 2.783-6.065 2.783-3.515 0-6.064-2.783Zm-1.494 8.701h15.117v62.871h-15.117Zm68.035 18.574q-3.809-6.68-10.547-6.68-5.801 0-9.873 5.596-4.072 5.596-4.072 14.209 0 8.555 4.365 13.916 4.365 5.361 10.752 5.361 1.172 0 2.139-.175.966-.176 1.67-.381.703-.205 1.406-.733l1.055-.791q.351-.263.878-1.054l.704-1.055q.175-.264.673-1.23.498-.967.616-1.143l12.539 6.504q-3.457 5.742-9.082 9.697-5.625 3.955-12.598 3.955-14.004 0-22.236-8.965-8.233-8.964-8.233-23.906 0-14.765 8.262-24.023t21.035-9.258q6.797 0 13.213 3.721 6.416 3.72 9.814 9.873ZM121.168 134.241h15.703v71.25h41.954v14.062h-57.657Zm81.965 53.847q0 19.395 13.008 19.395t13.008-19.395q0-19.277-13.008-19.277t-13.008 19.277Zm-14.765 0q0-15.234 7.265-24.111 7.266-8.877 20.449-8.877 13.184 0 20.391 8.848 7.207 8.847 7.207 24.14 0 15.293-7.207 24.229-7.207 8.935-20.391 8.935-13.242 0-20.478-8.847-7.236-8.848-7.236-24.317Zm103.89 35.567v-13.301q-3.047 4.804-7.998 7.822-4.951 3.018-9.99 3.018-5.566 0-9.902-2.608-4.336-2.607-6.973-7.148-2.637-4.541-3.984-10.371-1.348-5.83-1.348-12.686 0-6.855 1.318-12.744 1.319-5.889 3.955-10.547 2.637-4.658 6.973-7.324 4.336-2.666 9.961-2.666 5.098 0 10.019 2.959 4.922 2.959 7.969 7.764v-9.141h15.117v65.801q0 4.746-1.757 9.023-1.758 4.277-5.069 7.676-3.31 3.398-8.613 5.391-5.303 1.992-11.865 1.992-5.215 0-9.58-1.407-4.366-1.406-7.266-3.603-2.9-2.197-4.98-5.068-2.081-2.871-3.106-5.625t-1.318-5.508q8.672-.41 14.238-.645.527 3.926 3.486 6.328 2.959 2.403 8.467 2.403 5.508 0 8.877-2.608 3.369-2.607 3.369-7.177Zm-24.961-35.567q0 4.688 1.143 8.526 1.142 3.837 3.017 6.123 1.875 2.285 4.014 3.515 2.139 1.231 4.248 1.231 2.285 0 4.453-.967t4.16-3.076q1.993-2.11 3.194-6.065 1.201-3.955 1.201-9.287 0-5.273-1.201-9.228t-3.194-6.036q-1.992-2.08-4.16-3.046-2.168-.967-4.453-.967t-4.365 1.025q-2.08 1.026-3.955 3.194t-2.988 6.035q-1.114 3.867-1.114 9.023Zm67.211 0q0 19.395 13.008 19.395t13.008-19.395q0-19.277-13.008-19.277t-13.008 19.277Zm-14.765 0q0-15.234 7.265-24.111 7.266-8.877 20.449-8.877 13.184 0 20.391 8.848 7.207 8.847 7.207 24.14 0 15.293-7.207 24.229-7.207 8.935-20.391 8.935-13.242 0-20.478-8.847-7.236-8.848-7.236-24.317Z" transform="translate(2.139 50.773)" style="white-space:pre" fill="#333"/><path d="M194.516 351.083c0-8.45 6.85-15.3 15.3-15.3h8.346a4.173 4.173 0 0 1 0 8.346h-8.346a6.955 6.955 0 0 0-6.954 6.954v8.346a4.173 4.173 0 0 1-8.346 0v-8.346Zm83.457-11.127a4.173 4.173 0 0 1 4.173-4.173h8.345c8.45 0 15.3 6.85 15.3 15.3v8.346a4.173 4.173 0 0 1-8.345 0v-8.346a6.955 6.955 0 0 0-6.955-6.954h-8.345a4.173 4.173 0 0 1-4.173-4.173Zm-79.284 68.156a4.173 4.173 0 0 1 4.173 4.173v8.346a6.955 6.955 0 0 0 6.954 6.955h8.346a4.173 4.173 0 0 1 0 8.345h-8.346c-8.45 0-15.3-6.85-15.3-15.3v-8.346a4.173 4.173 0 0 1 4.173-4.173Zm102.93 0a4.173 4.173 0 0 1 4.173 4.173v8.346c0 8.45-6.85 15.3-15.3 15.3h-8.346a4.173 4.173 0 0 1 0-8.345h8.345a6.954 6.954 0 0 0 6.955-6.955v-8.346a4.173 4.173 0 0 1 4.173-4.173Zm-86.239-50.074a4.173 4.173 0 0 1 4.173 4.173v47.292a4.173 4.173 0 0 1-8.346 0v-47.292a4.173 4.173 0 0 1 4.173-4.173Zm26.428 4.173a4.173 4.173 0 0 0-8.346 0v47.292a4.173 4.173 0 0 0 8.346 0v-47.292Zm18.082-4.173a4.173 4.173 0 0 1 4.173 4.173v47.292a4.173 4.173 0 0 1-8.345 0v-47.292a4.173 4.173 0 0 1 4.172-4.173Zm26.428 4.173a4.173 4.173 0 0 0-8.345 0v47.292a4.173 4.173 0 0 0 8.345 0v-47.292Z" fill="#212121"/></svg>